# xmcd database file
#
# Track frame offsets:
# 150
# 17027
# 32828
# 49480
# 68097
# 86459
# 107670
# 121957
# 137408
# 154244
# 172292
# 187968
#
# Disc length: 2833 seconds
#
# Revision: 0
# Processed by: cddbd v1.5.1PL0 Copyright (c) Steve Scherf et al.
# Submitted via: CD-Runner 2005.30
#
DISCID=a00b0f0c
DTITLE=Sophie B. Hawkins - Wilderness
DYEAR=2004
DGENRE=Soul
TTITLE0=Beautiful Girl
TTITLE1=Open Up Your Eyes
TTITLE2=Meet Me On A Rooftop
TTITLE3=Walking on Thin Ice
TTITLE4=Blue
TTITLE5=Sweetsexywoman
TTITLE6=Surfer Girl
TTITLE7=Adrian
TTITLE8=Soul Lover
TTITLE9=Angel Of Darkness
TTITLE10=You Make Me High
TTITLE11=Feelin'Good
EXTD=
EXTT0=
EXTT1=
EXTT2=
EXTT3=
EXTT4=
EXTT5=
EXTT6=
EXTT7=
EXTT8=
EXTT9=
EXTT10=
EXTT11=
PLAYORDER=
